<svg width="24" height="24" viewBox="0 0 24 24" fill="none" xmlns="http://www.w3.org/2000/svg">
<path fill-rule="evenodd" clip-rule="evenodd" d="M10.9732 15.0021C10.9948 15.0129 11.0272 15.0129 11.0272 15.0129V15.0345C11.0596 15.0345 11.1243 14.9913 11.1243 14.9913L12.2901 13.8255C12.3013 13.8143 12.3124 13.8039 12.3232 13.7938C12.3542 13.7649 12.382 13.7388 12.3981 13.7068C12.4196 13.6636 12.4304 13.6204 12.4089 13.5772C12.3873 13.5341 12.3549 13.4909 12.3117 13.4909C11.8691 13.3937 11.4697 13.1778 11.1459 12.854C10.7681 12.487 10.5414 12.0012 10.4874 11.4507C10.4227 10.7707 10.6602 10.1014 11.1459 9.61567L14.2007 6.56085C15.0643 5.6973 16.5755 5.6973 17.439 6.56085C17.8708 7.00342 18.1083 7.57552 18.1083 8.19081C18.1083 8.80609 17.8708 9.38898 17.439 9.82076L16.0466 11.2025C16.0142 11.2348 16.0034 11.2888 16.0142 11.332C16.1437 11.7962 16.2193 12.2819 16.2193 12.7677C16.2193 13.0051 16.2085 13.2102 16.1761 13.3829C16.1761 13.4369 16.1977 13.5017 16.2517 13.5233C16.3056 13.5556 16.3704 13.5448 16.4136 13.5017L18.7775 11.1485C20.4075 9.50772 20.4075 6.8523 18.7775 5.22235C17.1476 3.59239 14.4922 3.59239 12.8622 5.22235L9.8074 8.27716C9.53754 8.54702 9.32165 8.83847 9.15974 9.12992C9.15614 9.13352 9.15134 9.13711 9.14655 9.14071C9.13695 9.14791 9.12736 9.15511 9.12736 9.1623C8.4581 10.3605 8.40413 11.807 8.99782 13.0375C9.20292 13.4585 9.46198 13.8363 9.8074 14.1817C10.142 14.5271 10.5414 14.8078 10.9732 15.0021ZM5.23056 18.7791C6.05094 19.5887 7.11958 19.9989 8.18823 19.9989L8.15584 20.0097C9.22449 20.0097 10.3039 19.5995 11.1135 18.7899L14.1683 15.7351C14.7296 15.1738 15.1182 14.483 15.2909 13.7166L15.3557 13.2416C15.3773 13.1337 15.3773 13.0257 15.3773 12.9178V12.8746V12.7774V12.486C15.3773 12.378 15.3665 12.2701 15.3449 12.1837C15.3341 12.065 15.3125 11.9679 15.2909 11.8707C15.2694 11.7628 15.237 11.644 15.1938 11.5145C15.0103 10.8992 14.6649 10.3163 14.1791 9.83055C13.8553 9.50672 13.4559 9.22606 13.0241 9.02097C12.9809 8.98859 12.873 9.04256 12.873 9.04256L11.7072 10.2084C11.6748 10.2408 11.6316 10.2839 11.5993 10.3487C11.5777 10.3811 11.5777 10.4243 11.5993 10.4674C11.6208 10.5106 11.6532 10.543 11.6964 10.543C12.139 10.6294 12.5384 10.8452 12.8622 11.1691C13.294 11.6116 13.5315 12.1945 13.5207 12.8314C13.5099 13.22 13.4127 13.5978 13.2292 13.9216C13.186 13.9972 13.1321 14.0836 13.0457 14.1807C13.0025 14.2455 12.9486 14.321 12.8622 14.4074L9.80739 17.4622C9.37561 17.8832 8.79271 18.1207 8.18823 18.1207C7.58374 18.1207 6.99005 17.8832 6.56907 17.4622C6.13729 17.0196 5.89981 16.4475 5.89981 15.8323C5.89981 15.217 6.13729 14.6341 6.56907 14.2023L7.96154 12.8098C7.99393 12.7666 8.00472 12.7127 7.99393 12.6695C7.77804 12.0002 7.71327 11.3202 7.81042 10.6401C7.82122 10.5862 7.78883 10.5214 7.73486 10.4998C7.69168 10.4674 7.58374 10.5214 7.58374 10.5214L5.23056 12.8638C4.43178 13.6518 4 14.7096 4 15.8215C4 16.9333 4.44257 17.9911 5.23056 18.7791Z" fill="#444444"/>
</svg>
