<svg width="16" height="16" viewBox="0 0 16 16" fill="none" xmlns="http://www.w3.org/2000/svg">
<path d="M12.6668 3.33337H12.0002V2.00004C12.0002 1.82323 11.9299 1.65366 11.8049 1.52864C11.6799 1.40361 11.5103 1.33337 11.3335 1.33337C11.1567 1.33337 10.9871 1.40361 10.8621 1.52864C10.7371 1.65366 10.6668 1.82323 10.6668 2.00004V3.33337H5.3335V2.00004C5.3335 1.82323 5.26326 1.65366 5.13823 1.52864C5.01321 1.40361 4.84364 1.33337 4.66683 1.33337C4.49002 1.33337 4.32045 1.40361 4.19543 1.52864C4.0704 1.65366 4.00016 1.82323 4.00016 2.00004V3.33337H3.3335C2.80306 3.33337 2.29436 3.54409 1.91928 3.91916C1.54421 4.29423 1.3335 4.80294 1.3335 5.33337V6.00004H14.6668V5.33337C14.6668 4.80294 14.4561 4.29423 14.081 3.91916C13.706 3.54409 13.1973 3.33337 12.6668 3.33337Z" fill="#151515"/>
<path d="M1.3335 12.6667C1.3335 13.1971 1.54421 13.7058 1.91928 14.0809C2.29436 14.456 2.80306 14.6667 3.3335 14.6667H12.6668C13.1973 14.6667 13.706 14.456 14.081 14.0809C14.4561 13.7058 14.6668 13.1971 14.6668 12.6667V7.33337H1.3335V12.6667Z" fill="#151515"/>
</svg>
