<svg width="16" height="16" viewBox="0 0 16 16" fill="none" xmlns="http://www.w3.org/2000/svg">
<path d="M14.6665 5.03994V10.9599C14.6664 11.0545 14.6396 11.1472 14.5892 11.2272C14.5388 11.3072 14.4668 11.3713 14.3816 11.4122C14.2963 11.4531 14.2012 11.4691 14.1072 11.4583C14.0133 11.4475 13.9243 11.4104 13.8505 11.3513L12.4078 10.1933C12.3845 10.1745 12.3657 10.1508 12.3528 10.1238C12.3398 10.0968 12.3331 10.0672 12.3332 10.0373V5.96261C12.3331 5.93268 12.3398 5.90312 12.3528 5.87612C12.3657 5.84912 12.3845 5.82537 12.4078 5.80661L13.8505 4.64861C13.9243 4.58945 14.0133 4.55235 14.1072 4.54156C14.2012 4.53077 14.2963 4.54675 14.3816 4.58764C14.4668 4.62854 14.5388 4.69269 14.5892 4.77271C14.6396 4.85274 14.6664 4.94537 14.6665 5.03994ZM11.3332 10.6666V5.33328C11.3719 5.06161 11.3469 4.78464 11.2601 4.52431C11.1733 4.26398 11.0271 4.02743 10.833 3.83339C10.639 3.63934 10.4024 3.49313 10.1421 3.40633C9.88179 3.31953 9.60483 3.29452 9.33316 3.33328H3.33316C3.06149 3.29452 2.78452 3.31953 2.52419 3.40633C2.26386 3.49313 2.02731 3.63934 1.83327 3.83339C1.63922 4.02743 1.49301 4.26398 1.40621 4.52431C1.3194 4.78464 1.29439 5.06161 1.33316 5.33328V10.6666C1.29439 10.9383 1.3194 11.2152 1.40621 11.4756C1.49301 11.7359 1.63922 11.9725 1.83327 12.1665C2.02731 12.3605 2.26386 12.5068 2.52419 12.5936C2.78452 12.6804 3.06149 12.7054 3.33316 12.6666H9.33316C9.60483 12.7054 9.88179 12.6804 10.1421 12.5936C10.4024 12.5068 10.639 12.3605 10.833 12.1665C11.0271 11.9725 11.1733 11.7359 11.2601 11.4756C11.3469 11.2152 11.3719 10.9383 11.3332 10.6666Z" fill="black"/>
</svg>
