<svg width="32" height="32" viewBox="0 0 32 32" fill="none" xmlns="http://www.w3.org/2000/svg">
<path d="M29 22H21L19 24H13L11 22H3C2.73478 22 2.48043 22.1054 2.29289 22.2929C2.10536 22.4804 2 22.7348 2 23C2 24.0609 2.42143 25.0783 3.17157 25.8284C3.92172 26.5786 4.93913 27 6 27H26C27.0609 27 28.0783 26.5786 28.8284 25.8284C29.5786 25.0783 30 24.0609 30 23C30 22.7348 29.8946 22.4804 29.7071 22.2929C29.5196 22.1054 29.2652 22 29 22Z" fill="#EEBB0C"/>
<path d="M13.83 22H18.17L20.17 20H28V7C28 6.46957 27.7893 5.96086 27.4142 5.58579C27.0391 5.21071 26.5304 5 26 5H6C5.46957 5 4.96086 5.21071 4.58579 5.58579C4.21071 5.96086 4 6.46957 4 7V20H11.83L13.83 22ZM19.29 11.71C19.1968 11.6168 19.1228 11.5061 19.0723 11.3842C19.0219 11.2624 18.9959 11.1319 18.9959 11C18.9959 10.7337 19.1017 10.4783 19.29 10.29C19.4783 10.1017 19.7337 9.99591 20 9.99591C20.1319 9.99591 20.2624 10.0219 20.3842 10.0723C20.5061 10.1228 20.6168 10.1968 20.71 10.29L22.71 12.29C22.8037 12.383 22.8781 12.4936 22.9289 12.6154C22.9797 12.7373 23.0058 12.868 23.0058 13C23.0058 13.132 22.9797 13.2627 22.9289 13.3846C22.8781 13.5064 22.8037 13.617 22.71 13.71L20.71 15.71C20.617 15.8037 20.5064 15.8781 20.3846 15.9289C20.2627 15.9797 20.132 16.0058 20 16.0058C19.868 16.0058 19.7373 15.9797 19.6154 15.9289C19.4936 15.8781 19.383 15.8037 19.29 15.71C19.1963 15.617 19.1219 15.5064 19.0711 15.3846C19.0203 15.2627 18.9942 15.132 18.9942 15C18.9942 14.868 19.0203 14.7373 19.0711 14.6154C19.1219 14.4936 19.1963 14.383 19.29 14.29L20.59 13L19.29 11.71ZM14.05 15.71L16.05 9.71C16.092 9.58524 16.1582 9.46999 16.2448 9.37081C16.3313 9.27163 16.4366 9.19047 16.5545 9.13197C16.6725 9.07347 16.8008 9.03877 16.9321 9.02986C17.0634 9.02094 17.1952 9.03798 17.32 9.08C17.4448 9.12202 17.56 9.18821 17.6592 9.27477C17.7584 9.36134 17.8395 9.46659 17.898 9.58452C17.9565 9.70245 17.9912 9.83075 18.0001 9.96209C18.0091 10.0934 17.992 10.2252 17.95 10.35L15.95 16.35C15.8779 16.543 15.7479 16.709 15.5779 16.8254C15.4079 16.9417 15.206 17.0027 15 17C14.8916 16.9973 14.784 16.9805 14.68 16.95C14.5551 16.9083 14.4396 16.8422 14.3402 16.7557C14.2409 16.6692 14.1596 16.5639 14.1011 16.4459C14.0425 16.3279 14.0079 16.1995 13.9991 16.0681C13.9903 15.9366 14.0076 15.8047 14.05 15.68V15.71ZM9.29 13.71C9.19627 13.617 9.12188 13.5064 9.07111 13.3846C9.02034 13.2627 8.9942 13.132 8.9942 13C8.9942 12.868 9.02034 12.7373 9.07111 12.6154C9.12188 12.4936 9.19627 12.383 9.29 12.29L11.29 10.29C11.4783 10.1017 11.7337 9.99591 12 9.99591C12.2663 9.99591 12.5217 10.1017 12.71 10.29C12.8983 10.4783 13.0041 10.7337 13.0041 11C13.0041 11.2663 12.8983 11.5217 12.71 11.71L11.41 13L12.71 14.29C12.8037 14.383 12.8781 14.4936 12.9289 14.6154C12.9797 14.7373 13.0058 14.868 13.0058 15C13.0058 15.132 12.9797 15.2627 12.9289 15.3846C12.8781 15.5064 12.8037 15.617 12.71 15.71C12.617 15.8037 12.5064 15.8781 12.3846 15.9289C12.2627 15.9797 12.132 16.0058 12 16.0058C11.868 16.0058 11.7373 15.9797 11.6154 15.9289C11.4936 15.8781 11.383 15.8037 11.29 15.71L9.29 13.71Z" fill="#EEBB0C"/>
</svg>
