<svg width="24" height="24" viewBox="0 0 24 24" fill="none" xmlns="http://www.w3.org/2000/svg">
<g clip-path="url(#clip0_294_46)">
<path d="M22.0781 0.749997C22.0781 0.361632 21.7634 0.046875 21.375 0.046875H18.0937C17.7056 0.046875 17.3906 0.361632 17.3906 0.749997V1.45312H22.0781V0.749997Z" fill="#F5F5F5"/>
<path d="M5.20312 9.84375H8.95311V12.6562H5.20312V9.84375Z" fill="#F5F5F5"/>
<path d="M5.20312 0H8.95311V4.21873H5.20312V0Z" fill="#F5F5F5"/>
<path d="M0.046875 5.625H3.79686V8.43749H0.046875V5.625Z" fill="#F5F5F5"/>
<path d="M5.20312 5.625H8.95311V8.43749H5.20312V5.625Z" fill="#F5F5F5"/>
<path d="M0.046875 9.84375H3.79686V12.6562H0.046875V9.84375Z" fill="#F5F5F5"/>
<path d="M10.3594 5.625H14.1094V8.43749H10.3594V5.625Z" fill="#F5F5F5"/>
<path d="M14.1094 17.5781V14.0625H10.3594V18.2812H13.4062C13.7946 18.2812 14.1094 17.9665 14.1094 17.5781Z" fill="#F5F5F5"/>
<path d="M0.046875 17.5781C0.046875 17.9665 0.361815 18.2812 0.749997 18.2812H3.79686V14.0625H0.046875V17.5781Z" fill="#F5F5F5"/>
<path d="M10.3594 9.84375H14.1094V12.6562H10.3594V9.84375Z" fill="#F5F5F5"/>
<path d="M0.046875 0.703122V4.21873H3.79686V0H0.749997C0.361815 0 0.046875 0.314757 0.046875 0.703122Z" fill="#F5F5F5"/>
<path d="M14.1094 0.703122C14.1094 0.314757 13.7946 0 13.4062 0H10.3594V4.21873H14.1094V0.703122Z" fill="#F5F5F5"/>
<path d="M22.3124 2.85938C21.7838 2.85938 17.7006 2.85938 17.1562 2.85938C16.2517 2.85938 15.5156 3.59527 15.5156 4.49999V16.6875C15.5156 17.5922 16.2517 18.3281 17.1562 18.3281H19.0312V20.0156C19.0312 20.6617 18.5055 21.1874 17.8593 21.1874H15.1038L13.9035 19.9872C13.6289 19.7125 13.1837 19.7125 12.9091 19.9872C12.6344 20.2618 12.6344 20.707 12.9091 20.9814L13.1151 21.1874H8.95311C8.30693 21.1874 7.78124 20.6617 7.78124 20.0156V18.2812H8.95311V14.0625H5.20312V18.2812H6.375V20.0156C6.375 21.4372 7.53167 22.5937 8.95311 22.5937H13.1151L12.9091 22.7997C12.6344 23.0743 12.6344 23.5195 12.9091 23.7941C13.1836 24.0686 13.6289 24.0688 13.9033 23.7941L15.1038 22.5937H17.8593C19.281 22.5937 20.4374 21.4372 20.4374 20.0156V18.3281H22.3124C23.2172 18.3281 23.9531 17.5922 23.9531 16.6875V4.49999C23.9531 3.59527 23.2172 2.85938 22.3124 2.85938ZM20.4374 9.8906C20.9653 9.8906 21.3054 10.4524 21.0604 10.92L19.5135 13.8731C19.3333 14.217 18.9085 14.3499 18.5643 14.1698C18.2204 13.9896 18.0875 13.5646 18.2678 13.2205L19.2755 11.2968H19.0312C18.5097 11.2968 18.1686 10.7466 18.4024 10.2793L19.8087 7.46684C19.9822 7.11949 20.4047 6.97868 20.7518 7.15245C21.0992 7.32603 21.24 7.74846 21.0664 8.09581L20.169 9.8906H20.4374Z" fill="#F5F5F5"/>
</g>
<defs>
<clipPath id="clip0_294_46">
<rect width="24" height="24" fill="white"/>
</clipPath>
</defs>
</svg>
