<svg width="24" height="24" viewBox="0 0 24 24" fill="none" xmlns="http://www.w3.org/2000/svg">
<path d="M16.6144 3.22449H7.38562C6.9809 3.22523 6.59299 3.3864 6.30689 3.67267C6.0208 3.95894 5.85987 4.34695 5.85938 4.75167V21.6759C5.85987 22.0806 6.0208 22.4686 6.30689 22.7549C6.59299 23.0412 6.9809 23.2023 7.38562 23.2031H16.6144C17.0191 23.2023 17.407 23.0412 17.6931 22.7549C17.9792 22.4686 18.1401 22.0806 18.1406 21.6759V4.75402C18.1407 4.34889 17.9801 3.96027 17.6939 3.6735C17.4078 3.38672 17.0195 3.22523 16.6144 3.22449ZM14.5706 14.0882C14.5711 14.273 14.5321 14.4556 14.4565 14.6242C14.3808 14.7927 14.2702 14.9431 14.1319 15.0656L10.8937 17.9362C10.8458 17.9789 10.7852 18.0046 10.7212 18.0094C10.6572 18.0142 10.5934 17.9979 10.5396 17.9629C10.4859 17.9278 10.4451 17.8761 10.4236 17.8156C10.4021 17.7552 10.4011 17.6893 10.4208 17.6282L11.1858 15.2259C11.2069 15.1595 11.2121 15.0891 11.201 15.0203C11.1898 14.9515 11.1625 14.8863 11.1214 14.8301C11.0803 14.7738 11.0265 14.728 10.9644 14.6965C10.9023 14.6649 10.8336 14.6484 10.7639 14.6484C10.5885 14.6485 10.4148 14.6139 10.2528 14.5468C10.0908 14.4797 9.94357 14.3812 9.81962 14.2572C9.69566 14.1331 9.59739 13.9858 9.53043 13.8237C9.46347 13.6616 9.42913 13.4878 9.42938 13.3125C9.42957 12.9747 9.5577 12.6496 9.78797 12.4026L13.4203 8.50917C13.4655 8.46076 13.5258 8.42912 13.5913 8.41944C13.6569 8.40975 13.7237 8.42259 13.781 8.45586C13.8383 8.48912 13.8826 8.54085 13.9066 8.60256C13.9307 8.66428 13.9331 8.73233 13.9134 8.79558L12.8531 12.2254C12.8331 12.2904 12.8286 12.3591 12.84 12.4262C12.8514 12.4932 12.8783 12.5566 12.9187 12.6113C12.959 12.666 13.0116 12.7105 13.0723 12.7412C13.133 12.7718 13.2 12.7879 13.268 12.7879C13.613 12.7878 13.944 12.9246 14.1882 13.1683C14.4325 13.412 14.57 13.7427 14.5706 14.0878V14.0882Z" fill="#F5F5F5"/>
<path d="M14.3991 1.63312C14.3988 1.41141 14.3106 1.19885 14.1539 1.04208C13.9971 0.885307 13.7845 0.797123 13.5628 0.796875H10.4372C10.2155 0.797123 10.0029 0.885307 9.84616 1.04208C9.68938 1.19885 9.6012 1.41141 9.60095 1.63312V2.66203H14.3991V1.63312Z" fill="#F5F5F5"/>
</svg>
