<svg width="24" height="24" viewBox="0 0 24 24" fill="none" xmlns="http://www.w3.org/2000/svg">
<g clip-path="url(#clip0_294_89)">
<path fill-rule="evenodd" clip-rule="evenodd" d="M22.0479 10.9044C22.6514 10.9044 23.1406 11.3937 23.1406 11.9971C23.1406 12.6007 22.6514 13.0899 22.0479 13.0899C21.5756 13.0899 21.1733 12.7902 21.0208 12.3707H19.497V11.6236H21.0208C21.1733 11.2041 21.5756 10.9044 22.0479 10.9044ZM3.55541 22.3613C2.95194 22.3613 2.46271 21.8721 2.46271 21.2686C2.46271 20.6651 2.95194 20.1758 3.55541 20.1758C4.02772 20.1758 4.43 20.4755 4.58258 20.895H7.52685V19.6811H8.27685L8.27539 21.2686C8.27539 21.4749 8.10814 21.6421 7.90185 21.6421H4.58258C4.42996 22.0617 4.02772 22.3613 3.55541 22.3613ZM10.9943 22.1573C10.9943 22.7608 11.4836 23.25 12.087 23.25C12.6906 23.25 13.1798 22.7608 13.1798 22.1573C13.1798 21.685 12.8801 21.2827 12.4606 21.1301V19.6811H11.7135V21.1301C11.294 21.2827 10.9943 21.685 10.9943 22.1573ZM21.0776 22.3613C21.6811 22.3613 22.1703 21.8721 22.1703 21.2686C22.1703 20.6651 21.6811 20.1758 21.0776 20.1758C20.6053 20.1758 20.203 20.4755 20.0504 20.895H17.1062V19.6811H16.3562L16.3576 21.2686C16.3576 21.4749 16.5249 21.6421 16.7312 21.6421H20.0504C20.2031 22.0617 20.6053 22.3613 21.0776 22.3613ZM21.584 1.53975C22.1875 1.53975 22.6768 2.02898 22.6768 2.6325C22.6768 3.23602 22.1875 3.72525 21.584 3.72525C21.1117 3.72525 20.7094 3.42558 20.5568 3.00605H16.5997V4.31316H15.8497L15.8512 2.6325C15.8512 2.4262 16.0184 2.25895 16.2247 2.25895H20.5568C20.7094 1.83938 21.1117 1.53975 21.584 1.53975ZM1.95196 10.9044C1.34844 10.9044 0.859253 11.3937 0.859253 11.9971C0.859253 12.6007 1.34849 13.0899 1.95196 13.0899C2.42427 13.0899 2.82655 12.7903 2.97913 12.3707H4.67713V11.6236H2.97913C2.82655 11.2041 2.42427 10.9044 1.95196 10.9044ZM3.55541 1.53975C2.95189 1.53975 2.46266 2.02898 2.46266 2.63245C2.46266 3.23597 2.95189 3.7252 3.55541 3.7252C4.02772 3.7252 4.43 3.42553 4.58258 3.006H7.52685V4.31311H8.27685L8.27539 2.63245C8.27539 2.42616 8.10814 2.25891 7.90185 2.25891H4.58258C4.42996 1.83937 4.02772 1.53975 3.55541 1.53975ZM10.9943 1.8427C10.9943 1.23923 11.4836 0.75 12.087 0.75C12.6905 0.75 13.1798 1.23923 13.1798 1.8427C13.1798 2.31502 12.8801 2.7173 12.4606 2.86992V4.31316H11.7135V2.86992C11.294 2.7173 10.9943 2.31502 10.9943 1.8427ZM12.087 8.90152C10.3772 8.90152 8.99141 10.2873 8.99141 11.9972C8.99141 13.707 10.3772 15.0928 12.087 15.0928C13.7968 15.0928 15.1827 13.707 15.1827 11.9972C15.1827 10.2873 13.7968 8.90152 12.087 8.90152ZM13.8056 11.7212L11.837 14.1564C11.778 14.2293 11.6601 14.1797 11.6709 14.0866L11.8592 12.4731C11.8658 12.4171 11.8225 12.3685 11.7661 12.3685H10.4373C10.359 12.3685 10.3153 12.2788 10.3634 12.217L12.2333 9.82284C12.2894 9.75103 12.4062 9.79355 12.4008 9.88598L12.3086 11.4693C12.3054 11.5234 12.3479 11.5685 12.4021 11.5685H13.7328C13.8117 11.5685 13.8553 11.6597 13.8056 11.7212ZM17.6243 5.06316H6.54978C5.9323 5.06316 5.42713 5.56833 5.42713 6.18581V17.8085C5.42713 18.426 5.9323 18.9311 6.54978 18.9311H17.6243C18.2418 18.9311 18.747 18.426 18.747 17.8085V6.18581C18.747 5.56833 18.2418 5.06316 17.6243 5.06316ZM17.6826 12.7544L16.7553 13.1113C16.6377 13.6054 16.4418 14.0772 16.1756 14.5096L16.5791 15.4183L15.5082 16.4892L14.5998 16.0858C14.1673 16.3522 13.6953 16.548 13.2011 16.6656L12.8443 17.5926H11.3298L10.9729 16.6654C10.4788 16.5478 10.007 16.3519 9.57458 16.0857L8.66591 16.4892L7.59496 15.4183L7.99841 14.5099C7.73202 14.0775 7.53618 13.6054 7.41861 13.1112L6.49157 12.7544V11.2399L7.41875 10.883C7.53636 10.389 7.73221 9.91702 7.9985 9.48459L7.59496 8.57602L8.66586 7.50506L9.57449 7.90861C10.0069 7.64236 10.4788 7.44647 10.9728 7.32891L11.3298 6.40162H12.8443L13.2012 7.32891C13.6952 7.44647 14.1671 7.64236 14.5995 7.90861L15.5082 7.50506L16.5791 8.57597L16.1757 9.48436C16.4421 9.91687 16.6379 10.3889 16.7555 10.8831L17.6825 11.2399V12.7544H17.6826Z" fill="#F5F5F5"/>
</g>
<defs>
<clipPath id="clip0_294_89">
<rect width="24" height="24" fill="white"/>
</clipPath>
</defs>
</svg>
