<svg width="24" height="25" viewBox="0 0 24 25" fill="none" xmlns="http://www.w3.org/2000/svg">
<path d="M6.75075 5.12516C6.88275 5.25791 7.05525 5.32391 7.2285 5.32391C7.401 5.32391 7.5735 5.25791 7.7055 5.12591C7.9695 4.86191 7.9695 4.43516 7.7055 4.17191L7.23075 3.69641C6.9675 3.43091 6.54 3.43091 6.276 3.69566C6.012 3.95966 6.012 4.38641 6.276 4.64966L6.75075 5.12516Z" fill="#F5F5F5"/>
<path d="M16.7715 5.324C16.944 5.324 17.1172 5.258 17.2492 5.12525L17.724 4.64975C17.9872 4.38575 17.9872 3.959 17.724 3.69575C17.46 3.431 17.0332 3.43175 16.7692 3.6965L16.2945 4.172C16.0312 4.436 16.0312 4.86275 16.2945 5.126C16.4265 5.258 16.599 5.324 16.7715 5.324Z" fill="#F5F5F5"/>
<path d="M18.7485 10.0955H19.4205C19.7932 10.0955 20.0955 9.79323 20.0955 9.42048C20.0955 9.04773 19.7932 8.74548 19.4205 8.74548H18.7485C18.3757 8.74548 18.0735 9.04773 18.0735 9.42048C18.0735 9.79323 18.375 10.0955 18.7485 10.0955Z" fill="#F5F5F5"/>
<path d="M4.57954 10.0955H5.25154C5.62429 10.0955 5.92654 9.79323 5.92654 9.42048C5.92654 9.04773 5.62429 8.74548 5.25154 8.74548H4.57954C4.20679 8.74548 3.90454 9.04773 3.90454 9.42048C3.90454 9.79323 4.20679 10.0955 4.57954 10.0955Z" fill="#F5F5F5"/>
<path d="M12 3.3477C12.3727 3.3477 12.675 3.04545 12.675 2.6727V1.99995C12.675 1.6272 12.3727 1.32495 12 1.32495C11.6272 1.32495 11.325 1.6272 11.325 1.99995V2.67195C11.325 3.04545 11.6272 3.3477 12 3.3477Z" fill="#F5F5F5"/>
<path d="M15.765 9.26751C15.939 9.26751 16.0837 9.11751 16.0642 8.94501C15.8332 6.90126 14.103 5.32251 12 5.32251C9.89696 5.32251 8.16671 6.90126 7.93646 8.94501C7.91696 9.11751 8.06171 9.26751 8.23571 9.26751H15.765Z" fill="#F5F5F5"/>
<path d="M12.675 12.266V16.3047H19.911L18.8325 12.6282C18.7695 12.4137 18.573 12.266 18.3488 12.266H12.675Z" fill="#F5F5F5"/>
<path d="M11.325 16.3047V12.266H5.65124C5.42774 12.266 5.23049 12.4137 5.16749 12.6282L4.08899 16.3047H11.325Z" fill="#F5F5F5"/>
<path d="M3.99826 17.6554C3.89551 17.6554 3.80026 17.6284 3.71326 17.5872L2.31526 22.3542C2.22001 22.6767 2.46151 22.9999 2.79826 22.9999H11.325V17.6554H3.99826Z" fill="#F5F5F5"/>
<path d="M21.6855 22.3542L20.2875 17.5872C20.2005 17.6284 20.1053 17.6554 20.0025 17.6554H12.675V22.9999H21.2018C21.5385 22.9999 21.78 22.6767 21.6855 22.3542Z" fill="#F5F5F5"/>
</svg>
