<svg width="35" height="35" viewBox="0 0 35 35" fill="none" xmlns="http://www.w3.org/2000/svg">
<path d="M29.5049 4.13788H26.995V3.99786C26.995 2.89789 26.105 1.99786 24.995 1.99786H9.995C8.89496 1.99786 7.995 2.89789 7.995 3.99786V4.13788H5.495C3.83496 4.13788 2.495 5.48785 2.495 7.13788V8.14789C2.495 11.4078 4.91498 14.1179 8.06494 14.5679C8.48499 18.3478 11.125 21.4579 14.645 22.5579L13.365 25.8779H21.6349L20.355 22.5579C23.8849 21.4479 26.515 18.3478 26.935 14.5679C30.075 14.1179 32.5049 11.4078 32.5049 8.14789V7.13788C32.5049 5.48785 31.155 4.13788 29.5049 4.13788ZM7.995 12.5279C5.995 12.0679 4.495 10.2878 4.495 8.14789V7.13788C4.495 6.58789 4.94495 6.13788 5.495 6.13788H7.995V12.5279ZM22.095 12.1279L20.535 13.6578L20.895 15.8079C21.035 16.6379 20.175 17.2679 19.425 16.8779L17.495 15.8578L15.555 16.8779C14.825 17.2679 13.955 16.6379 14.095 15.8079L14.465 13.6578L12.905 12.1279C12.295 11.5378 12.6349 10.5179 13.455 10.3979L15.625 10.0879L16.595 8.12787C16.965 7.37787 18.035 7.37787 18.405 8.12787L19.375 10.0879L21.535 10.4078C22.365 10.5279 22.6949 11.5479 22.095 12.1279ZM30.5049 8.14789C30.5049 10.2779 29.0049 12.0679 26.995 12.5279V6.13788H29.5049C30.055 6.13788 30.5049 6.58789 30.5049 7.13788V8.14789Z" fill="#EEBB0C"/>
<path d="M27.3665 31.0021H25.5367V30.9785C25.5367 29.2664 24.1487 27.8785 22.4366 27.8785H12.5587C10.8466 27.8785 9.45868 29.2664 9.45868 30.9785V31.0021H7.62915C7.07642 31.0021 6.62915 31.4494 6.62915 32.0021C6.62915 32.5549 7.07642 33.0021 7.62915 33.0021H27.3665C27.9192 33.0021 28.3665 32.5549 28.3665 32.0021C28.3665 31.4494 27.9192 31.0021 27.3665 31.0021Z" fill="#EEBB0C"/>
</svg>
