<svg width="32" height="32" viewBox="0 0 32 32" fill="none" xmlns="http://www.w3.org/2000/svg">
<g clip-path="url(#clip0_269_186)">
<path d="M5.625 11.375C3.55681 11.375 1.875 9.69319 1.875 7.625C1.875 5.55681 3.55681 3.875 5.625 3.875C7.69319 3.875 9.375 5.55681 9.375 7.625C9.375 9.69319 7.69319 11.375 5.625 11.375Z" fill="#EEBB0C"/>
<path d="M26.375 11.375C24.3068 11.375 22.625 9.69319 22.625 7.625C22.625 5.55681 24.3068 3.875 26.375 3.875C28.4432 3.875 30.125 5.55681 30.125 7.625C30.125 9.69319 28.4432 11.375 26.375 11.375Z" fill="#EEBB0C"/>
<path d="M16 9.375C13.4154 9.375 11.3125 7.27206 11.3125 4.6875C11.3125 2.10294 13.4154 0 16 0C18.5846 0 20.6875 2.10294 20.6875 4.6875C20.6875 7.27206 18.5846 9.375 16 9.375Z" fill="#EEBB0C"/>
<path d="M16.9375 9.46976V15.9375C16.9375 16.4557 16.5182 16.875 16 16.875C15.4818 16.875 15.0625 16.4557 15.0625 15.9375V9.46976C11.8906 9.92957 9.4375 12.6403 9.4375 15.9375V21.5625C9.4375 22.0807 9.85681 22.5 10.375 22.5H12.4753L13.1912 31.1413C13.2314 31.6264 13.6379 32 14.125 32H17.875C18.3621 32 18.7686 31.6264 18.8088 31.1413L19.5247 22.5H21.625C22.1432 22.5 22.5625 22.0807 22.5625 21.5625V15.9375C22.5625 12.6403 20.1094 9.92957 16.9375 9.46976Z" fill="#EEBB0C"/>
<path d="M7.5 21.6875V16.0625C7.5 14.6572 7.87813 13.3514 8.48819 12.1849C7.64638 11.6824 6.67462 11.375 5.625 11.375C2.52319 11.375 0 13.8982 0 17V21.6875C0 22.2057 0.419312 22.625 0.9375 22.625H1.96381L2.81706 31.1559C2.86469 31.6347 3.26844 32 3.75 32H7.5C7.98156 32 8.38531 31.6347 8.43294 31.1559L9.12588 24.2282C8.16869 23.779 7.5 22.8129 7.5 21.6875Z" fill="#EEBB0C"/>
<path d="M32 17C32 13.8982 29.4768 11.375 26.375 11.375C25.3254 11.375 24.3536 11.6824 23.5118 12.1849C24.1219 13.3514 24.5 14.6572 24.5 16.0625V21.6875C24.5 22.8129 23.8313 23.779 22.8741 24.2282L23.5671 31.1559C23.6147 31.6347 24.0185 32 24.5 32H28.25C28.7316 32 29.1353 31.6347 29.183 31.1559L30.0362 22.625H31.0625C31.5807 22.625 32 22.2057 32 21.6875V17Z" fill="#EEBB0C"/>
</g>
<defs>
<clipPath id="clip0_269_186">
<rect width="32" height="32" fill="white"/>
</clipPath>
</defs>
</svg>
