<svg width="24" height="25" viewBox="0 0 24 25" fill="none" xmlns="http://www.w3.org/2000/svg">
<g clip-path="url(#clip0_294_231)">
<path d="M12 3.957C11.586 3.957 11.25 3.621 11.25 3.207V1.25C11.25 0.836 11.586 0.5 12 0.5C12.414 0.5 12.75 0.836 12.75 1.25V3.207C12.75 3.621 12.414 3.957 12 3.957Z" fill="#F5F5F5"/>
<path d="M18.571 6.67894C18.379 6.67894 18.187 6.60594 18.041 6.45894C17.748 6.16594 17.748 5.69094 18.041 5.39794L19.425 4.01394C19.718 3.72094 20.193 3.72094 20.486 4.01394C20.779 4.30694 20.779 4.78194 20.486 5.07494L19.102 6.45894C18.955 6.60494 18.764 6.67894 18.571 6.67894Z" fill="#F5F5F5"/>
<path d="M23.2499 13.25H21.2939C20.8799 13.25 20.5439 12.914 20.5439 12.5C20.5439 12.086 20.8799 11.75 21.2939 11.75H23.2499C23.6639 11.75 23.9999 12.086 23.9999 12.5C23.9999 12.914 23.6639 13.25 23.2499 13.25Z" fill="#F5F5F5"/>
<path d="M19.955 21.2051C19.763 21.2051 19.571 21.1321 19.425 20.9851L18.041 19.6011C17.748 19.3081 17.748 18.8331 18.041 18.5401C18.334 18.2471 18.809 18.2471 19.102 18.5401L20.486 19.9241C20.779 20.2171 20.779 20.6921 20.486 20.9851C20.339 21.1321 20.147 21.2051 19.955 21.2051Z" fill="#F5F5F5"/>
<path d="M12 24.5C11.586 24.5 11.25 24.164 11.25 23.75V21.793C11.25 21.379 11.586 21.043 12 21.043C12.414 21.043 12.75 21.379 12.75 21.793V23.75C12.75 24.164 12.414 24.5 12 24.5Z" fill="#F5F5F5"/>
<path d="M4.04504 21.2051C3.85304 21.2051 3.66104 21.1321 3.51504 20.9851C3.22204 20.6921 3.22204 20.2171 3.51504 19.9241L4.89904 18.5401C5.19204 18.2471 5.66704 18.2471 5.96004 18.5401C6.25304 18.8331 6.25304 19.3081 5.96004 19.6011L4.57604 20.9851C4.42904 21.1321 4.23704 21.2051 4.04504 21.2051Z" fill="#F5F5F5"/>
<path d="M2.706 13.25H0.75C0.336 13.25 0 12.914 0 12.5C0 12.086 0.336 11.75 0.75 11.75H2.706C3.12 11.75 3.456 12.086 3.456 12.5C3.456 12.914 3.12 13.25 2.706 13.25Z" fill="#F5F5F5"/>
<path d="M5.42904 6.67894C5.23704 6.67894 5.04504 6.60594 4.89904 6.45894L3.51504 5.07494C3.22204 4.78194 3.22204 4.30694 3.51504 4.01394C3.80804 3.72094 4.28304 3.72094 4.57604 4.01394L5.96004 5.39794C6.25304 5.69094 6.25304 6.16594 5.96004 6.45894C5.81204 6.60494 5.62104 6.67894 5.42904 6.67894Z" fill="#F5F5F5"/>
<path d="M10.823 20.5C10.737 20.5 10.65 20.485 10.566 20.455C10.235 20.334 10.033 20 10.08 19.652L10.895 13.5H7.75002C7.46802 13.5 7.20902 13.341 7.08102 13.089C6.95302 12.837 6.97802 12.534 7.14502 12.307L12.645 4.80699C12.85 4.52599 13.222 4.42199 13.541 4.55899C13.861 4.69399 14.047 5.03099 13.99 5.37299L13.136 10.5H16.25C16.524 10.5 16.776 10.649 16.908 10.89C17.039 11.13 17.029 11.423 16.882 11.654L11.455 20.154C11.314 20.375 11.073 20.5 10.823 20.5Z" fill="#F5F5F5"/>
</g>
<defs>
<clipPath id="clip0_294_231">
<rect width="24" height="24" fill="white" transform="translate(0 0.5)"/>
</clipPath>
</defs>
</svg>
