<svg width="24" height="25" viewBox="0 0 24 25" fill="none" xmlns="http://www.w3.org/2000/svg">
<g clip-path="url(#clip0_294_127)">
<path d="M6.78002 14.1079C6.06773 13.2927 5.64685 12.23 5.64685 11.0883C5.64685 8.55442 7.70098 6.50024 10.2349 6.50024C12.1435 6.50024 13.7799 7.66567 14.4713 9.32365H10.5879C9.80352 9.32365 9.08338 9.75722 8.71639 10.4504L6.78002 14.1079ZM23.1167 13.2832V23.4407C23.1167 23.8306 22.8007 24.1466 22.4108 24.1466C22.021 24.1466 21.705 23.8306 21.705 23.4407V15.9497L17.5643 23.771C17.4419 24.0021 17.2019 24.1466 16.9405 24.1466H10.5878L17.6464 10.7354H23.2932C23.8251 10.7354 24.1659 11.3014 23.917 11.7715L23.1167 13.2832ZM16.051 10.7354L8.99253 24.1466H4.2351C3.70321 24.1466 3.36238 23.5806 3.61127 23.1105L9.96395 11.111C10.0863 10.8799 10.3263 10.7354 10.5878 10.7354H16.051ZM10.9407 4.38267C10.9407 4.77249 10.6247 5.08854 10.2349 5.08854C9.84499 5.08854 9.52899 4.77254 9.52899 4.38267V1.55927C9.52899 1.16945 9.84499 0.853394 10.2349 0.853394C10.6247 0.853394 10.9407 1.1694 10.9407 1.55927V4.38267ZM15.4756 6.84583C15.1999 7.1215 14.753 7.1215 14.4773 6.84583C14.2017 6.57016 14.2017 6.12326 14.4773 5.84759L16.4738 3.85111C16.7495 3.57544 17.1964 3.57544 17.4721 3.85111C17.7477 4.12678 17.7477 4.57368 17.4721 4.84935L15.4756 6.84583ZM4.9942 15.3308C5.26987 15.0551 5.71677 15.0551 5.99244 15.3308C6.26811 15.6065 6.26811 16.0533 5.99244 16.329L3.99596 18.3255C3.72029 18.6012 3.27339 18.6012 2.99772 18.3255C2.72204 18.0498 2.72204 17.6029 2.99772 17.3273L4.9942 15.3308ZM3.52927 10.3824C3.9191 10.3824 4.23515 10.6984 4.23515 11.0883C4.23515 11.4782 3.91914 11.7942 3.52927 11.7942H0.705874C0.316052 11.7942 0 11.4782 0 11.0883C0 10.6984 0.316005 10.3824 0.705874 10.3824H3.52927ZM5.99239 5.84759C6.26806 6.12326 6.26806 6.57016 5.99239 6.84583C5.71672 7.1215 5.26982 7.1215 4.99415 6.84583L2.99767 4.84935C2.722 4.57368 2.722 4.12678 2.99767 3.85111C3.27334 3.57544 3.72024 3.57544 3.99591 3.85111L5.99239 5.84759Z" fill="#F5F5F5"/>
</g>
<defs>
<clipPath id="clip0_294_127">
<rect width="24" height="24" fill="white" transform="translate(0 0.5)"/>
</clipPath>
</defs>
</svg>
