<svg width="24" height="24" viewBox="0 0 24 24" fill="none" xmlns="http://www.w3.org/2000/svg">
<path d="M16.2136 0H7.78638C6.12274 0 4.78638 1.33636 4.78638 3V21C4.78638 22.6636 6.15001 24 7.78638 24H16.2136C17.8773 24 19.2137 22.6636 19.2137 21V3C19.2137 1.33636 17.8773 0 16.2136 0ZM12.0136 22.0636C11.25 22.0636 10.65 21.4636 10.65 20.7C10.65 19.9364 11.25 19.3364 12.0136 19.3364C12.7773 19.3364 13.3773 19.9364 13.3773 20.7C13.3773 21.4636 12.7773 22.0636 12.0136 22.0636ZM17.85 17.8909H6.15001V4.00909H17.85V17.8909Z" fill="#F5F5F5"/>
</svg>
