<svg width="32" height="32" viewBox="0 0 32 32" fill="none" xmlns="http://www.w3.org/2000/svg">
<g clip-path="url(#clip0_272_300)">
<path d="M16 9C14.6155 9 13.2622 9.41054 12.111 10.1797C10.9599 10.9489 10.0627 12.0421 9.53285 13.3212C9.00303 14.6003 8.86441 16.0078 9.13451 17.3656C9.4046 18.7235 10.0713 19.9708 11.0503 20.9497C12.0292 21.9287 13.2765 22.5954 14.6344 22.8655C15.9922 23.1356 17.3997 22.997 18.6788 22.4672C19.9579 21.9373 21.0511 21.0401 21.8203 19.889C22.5895 18.7378 23 17.3845 23 16C22.9979 14.1441 22.2598 12.3648 20.9475 11.0525C19.6352 9.74023 17.8559 9.00206 16 9ZM19.707 14.707L15.707 18.707C15.6142 18.7999 15.504 18.8736 15.3827 18.9238C15.2613 18.9741 15.1313 19 15 19C14.8687 19 14.7387 18.9741 14.6173 18.9238C14.496 18.8736 14.3858 18.7999 14.293 18.707L12.293 16.707C12.1108 16.5184 12.0101 16.2658 12.0123 16.0036C12.0146 15.7414 12.1198 15.4906 12.3052 15.3052C12.4906 15.1198 12.7414 15.0146 13.0036 15.0123C13.2658 15.01 13.5184 15.1108 13.707 15.293L15 16.5859L18.293 13.293C18.4816 13.1108 18.7342 13.01 18.9964 13.0123C19.2586 13.0146 19.5094 13.1198 19.6948 13.3052C19.8802 13.4906 19.9854 13.7414 19.9877 14.0036C19.99 14.2658 19.8892 14.5184 19.707 14.707Z" fill="#EEBB0C"/>
<path d="M30.4844 12.84L28.4619 12.3342C28.2011 11.4476 27.8457 10.5916 27.4019 9.781L28.4762 7.991C28.7061 7.60862 28.8013 7.16029 28.7468 6.71747C28.6923 6.27465 28.4912 5.86282 28.1754 5.5476L26.4512 3.8242C26.1361 3.50828 25.7242 3.307 25.2814 3.25248C24.8385 3.19796 24.3901 3.29334 24.0078 3.5234L22.2188 4.5972C21.408 4.15368 20.5518 3.79876 19.665 3.5386L19.1592 1.5146C19.0515 1.08161 18.8019 0.697173 18.4502 0.422641C18.0985 0.148109 17.665 -0.000687585 17.2188 2.38879e-06H14.7808C14.3347 -0.000458203 13.9014 0.148431 13.5498 0.422934C13.1982 0.697437 12.9486 1.08175 12.8408 1.5146L12.335 3.5386C11.4483 3.7989 10.5921 4.1538 9.7813 4.5972L7.9913 3.5229C7.60893 3.29317 7.16066 3.19802 6.71794 3.25263C6.27521 3.30723 5.8635 3.50844 5.5484 3.8242L3.8237 5.5488C3.50821 5.86409 3.30728 6.27588 3.25292 6.71858C3.19855 7.16128 3.29387 7.60945 3.5237 7.9917L4.5975 9.7817C4.15414 10.5924 3.79923 11.4484 3.5389 12.3349L1.5149 12.8407C1.08198 12.9484 0.697585 13.198 0.423021 13.5496C0.148458 13.9012 -0.000464256 14.3347 2.05208e-06 14.7808V17.2192C-0.000637367 17.6654 0.14817 18.099 0.422687 18.4507C0.697204 18.8025 1.08162 19.0522 1.5146 19.16L3.5386 19.6658C3.79895 20.5524 4.15385 21.4084 4.5972 22.2191L3.5229 24.0091C3.29331 24.3915 3.19824 24.8398 3.25284 25.2824C3.30744 25.7251 3.50857 26.1368 3.8242 26.452L5.5488 28.1766C5.86399 28.4923 6.27579 28.6933 6.71854 28.7477C7.16129 28.8021 7.6095 28.7066 7.9917 28.4766L9.7817 27.4028C10.5924 27.8462 11.4483 28.2011 12.3349 28.4614L12.8407 30.4854C12.9485 30.9183 13.1981 31.3026 13.5497 31.5771C13.9013 31.8516 14.3347 32.0005 14.7808 32H17.2188C17.6649 32.0006 18.0984 31.8518 18.45 31.5772C18.8016 31.3027 19.0512 30.9183 19.1588 30.4854L19.6646 28.4614C20.5514 28.2012 21.4076 27.8463 22.2184 27.4028L24.0084 28.4771C24.3907 28.7068 24.8389 28.8019 25.2815 28.7473C25.7242 28.6927 26.1358 28.4915 26.4508 28.1758L28.1764 26.4512C28.4918 26.1359 28.6927 25.7241 28.7471 25.2814C28.8015 24.8387 28.7062 24.3906 28.4764 24.0083L27.4021 22.2188C27.8459 21.4081 28.2013 20.5521 28.4621 19.6655L30.4846 19.1597C30.9177 19.052 31.3022 18.8024 31.5768 18.4507C31.8515 18.099 32.0005 17.6654 32 17.2192V14.7808C32.0005 14.3345 31.8516 13.9008 31.5769 13.5491C31.3022 13.1973 30.9175 12.9477 30.4844 12.84ZM16 25C14.22 25 12.4799 24.4722 10.9999 23.4832C9.51983 22.4943 8.36627 21.0887 7.68509 19.4442C7.0039 17.7996 6.82567 15.99 7.17293 14.2442C7.5202 12.4984 8.37737 10.8947 9.63604 9.63604C10.8947 8.37737 12.4984 7.5202 14.2442 7.17294C15.99 6.82567 17.7996 7.0039 19.4442 7.68509C21.0887 8.36628 22.4943 9.51983 23.4832 10.9999C24.4722 12.4799 25 14.22 25 16C24.9974 18.3861 24.0483 20.6738 22.361 22.361C20.6738 24.0483 18.3861 24.9974 16 25Z" fill="#EEBB0C"/>
</g>
<defs>
<clipPath id="clip0_272_300">
<rect width="32" height="32" fill="white"/>
</clipPath>
</defs>
</svg>
