<svg width="24" height="24" viewBox="0 0 24 24" fill="none" xmlns="http://www.w3.org/2000/svg">
<path fill-rule="evenodd" clip-rule="evenodd" d="M13.3951 1.32445C12.5164 0.89185 11.4836 0.891849 10.6049 1.32445L1.85289 5.63347C0.715707 6.19335 0.7157 7.80664 1.85289 8.36653L10.6049 12.6755C11.4836 13.1082 12.5164 13.1082 13.3951 12.6756L22.1471 8.36653C23.2843 7.80665 23.2843 6.19336 22.1471 5.63347L13.3951 1.32445ZM1.9031 10.6087C2.04236 10.5401 2.20556 10.5401 2.34481 10.6087L10.6049 14.6755C11.4836 15.1081 12.5164 15.1081 13.3951 14.6755L21.6552 10.6087C21.7944 10.5401 21.9576 10.5401 22.0969 10.6087L22.1471 10.6334C23.2843 11.1933 23.2843 12.8066 22.1471 13.3665L13.3951 17.6755C12.5164 18.1081 11.4836 18.1081 10.6049 17.6755L1.85289 13.3665C0.7157 12.8066 0.715707 11.1933 1.85289 10.6334L1.9031 10.6087ZM2.34481 15.6088C2.20556 15.5402 2.04236 15.5402 1.9031 15.6088L1.85289 15.6335C0.715707 16.1934 0.7157 17.8067 1.85289 18.3666L10.6049 22.6756C11.4836 23.1082 12.5164 23.1082 13.3951 22.6756L22.1471 18.3666C23.2843 17.8067 23.2843 16.1934 22.1471 15.6335L22.0969 15.6088C21.9576 15.5402 21.7944 15.5402 21.6552 15.6088L13.3951 19.6756C12.5164 20.1082 11.4836 20.1082 10.6049 19.6756L2.34481 15.6088Z" fill="#F5F5F5"/>
</svg>
