<svg width="32" height="32" viewBox="0 0 32 32" fill="none" xmlns="http://www.w3.org/2000/svg">
<path d="M20 5.66667C17.9562 5.66667 15.9584 6.27271 14.2591 7.40815C12.5598 8.54359 11.2353 10.1574 10.4532 12.0456C9.6711 13.9338 9.46647 16.0115 9.86518 18.0159C10.2639 20.0204 11.2481 21.8616 12.6932 23.3068C14.1383 24.7519 15.9796 25.7361 17.984 26.1348C19.9885 26.5335 22.0662 26.3289 23.9544 25.5468C25.8425 24.7647 27.4564 23.4402 28.5918 21.7409C29.7273 20.0416 30.3333 18.0437 30.3333 16C30.3298 13.2605 29.24 10.6342 27.3028 8.69713C25.3657 6.76002 22.7395 5.6702 20 5.66667ZM23.3733 19.3733C23.1858 19.5606 22.9316 19.6658 22.6666 19.6658C22.4016 19.6658 22.1475 19.5606 21.96 19.3733L19.2933 16.7067C19.1057 16.5193 19.0002 16.2651 19 16V10.6667C19 10.4015 19.1053 10.1471 19.2929 9.95957C19.4804 9.77203 19.7347 9.66667 20 9.66667C20.2652 9.66667 20.5195 9.77203 20.7071 9.95957C20.8946 10.1471 21 10.4015 21 10.6667V15.5867L23.3733 17.96C23.5606 18.1475 23.6658 18.4017 23.6658 18.6667C23.6658 18.9317 23.5606 19.1858 23.3733 19.3733Z" fill="#EEBB0C"/>
<path d="M10.6666 9H6.66663C6.40141 9 6.14706 8.89464 5.95952 8.70711C5.77198 8.51957 5.66663 8.26522 5.66663 8C5.66663 7.73478 5.77198 7.48043 5.95952 7.29289C6.14706 7.10536 6.40141 7 6.66663 7H10.6666C10.9318 7 11.1862 7.10536 11.3737 7.29289C11.5613 7.48043 11.6666 7.73478 11.6666 8C11.6666 8.26522 11.5613 8.51957 11.3737 8.70711C11.1862 8.89464 10.9318 9 10.6666 9Z" fill="#EEBB0C"/>
<path d="M8 13H4C3.73478 13 3.48043 12.8946 3.29289 12.7071C3.10536 12.5196 3 12.2652 3 12C3 11.7348 3.10536 11.4804 3.29289 11.2929C3.48043 11.1054 3.73478 11 4 11H8C8.26522 11 8.51957 11.1054 8.70711 11.2929C8.89464 11.4804 9 11.7348 9 12C9 12.2652 8.89464 12.5196 8.70711 12.7071C8.51957 12.8946 8.26522 13 8 13Z" fill="#EEBB0C"/>
<path d="M8 21H4C3.73478 21 3.48043 20.8946 3.29289 20.7071C3.10536 20.5196 3 20.2652 3 20C3 19.7348 3.10536 19.4804 3.29289 19.2929C3.48043 19.1054 3.73478 19 4 19H8C8.26522 19 8.51957 19.1054 8.70711 19.2929C8.89464 19.4804 9 19.7348 9 20C9 20.2652 8.89464 20.5196 8.70711 20.7071C8.51957 20.8946 8.26522 21 8 21Z" fill="#EEBB0C"/>
<path d="M7.99996 17H2.66663C2.40141 17 2.14706 16.8946 1.95952 16.7071C1.77198 16.5196 1.66663 16.2652 1.66663 16C1.66663 15.7348 1.77198 15.4804 1.95952 15.2929C2.14706 15.1054 2.40141 15 2.66663 15H7.99996C8.26518 15 8.51953 15.1054 8.70707 15.2929C8.8946 15.4804 8.99996 15.7348 8.99996 16C8.99996 16.2652 8.8946 16.5196 8.70707 16.7071C8.51953 16.8946 8.26518 17 7.99996 17Z" fill="#EEBB0C"/>
<path d="M10.6666 25H6.66663C6.40141 25 6.14706 24.8946 5.95952 24.7071C5.77198 24.5196 5.66663 24.2652 5.66663 24C5.66663 23.7348 5.77198 23.4804 5.95952 23.2929C6.14706 23.1054 6.40141 23 6.66663 23H10.6666C10.9318 23 11.1862 23.1054 11.3737 23.2929C11.5613 23.4804 11.6666 23.7348 11.6666 24C11.6666 24.2652 11.5613 24.5196 11.3737 24.7071C11.1862 24.8946 10.9318 25 10.6666 25Z" fill="#EEBB0C"/>
</svg>
