<svg width="24" height="24" viewBox="0 0 24 24" fill="none" xmlns="http://www.w3.org/2000/svg">
<path fill-rule="evenodd" clip-rule="evenodd" d="M20.4261 13.932V20.05C20.4261 20.52 20.2401 20.971 19.9071 21.304C19.5741 21.637 19.1231 21.823 18.6531 21.823H5.3471C4.8771 21.823 4.4261 21.637 4.0931 21.304C3.7601 20.971 3.5741 20.52 3.5741 20.05V13.932C3.9841 13.894 4.3891 13.744 4.7381 13.477L12.0001 7.92395L19.2621 13.477C19.6111 13.744 20.0161 13.894 20.4261 13.932ZM12.9291 11.238C12.9421 11.138 12.8821 11.043 12.7871 11.011C12.6921 10.979 12.5871 11.018 12.5371 11.105L9.5421 16.239C9.5031 16.305 9.5031 16.386 9.5411 16.451C9.5791 16.517 9.6491 16.558 9.7241 16.558H11.4711L11.0711 19.762C11.0581 19.862 11.1181 19.957 11.2131 19.989C11.3081 20.021 11.4131 19.982 11.4631 19.895L14.4581 14.761C14.4971 14.695 14.4971 14.614 14.4591 14.549C14.4211 14.483 14.3511 14.442 14.2761 14.442H12.5291L12.9291 11.238Z" fill="#F5F5F5"/>
<path fill-rule="evenodd" clip-rule="evenodd" d="M2.42706 12.524L1.57406 11.577C1.34006 11.317 1.22406 10.971 1.25506 10.623C1.28506 10.275 1.45806 9.95501 1.73406 9.73901L10.9061 2.55401C11.5491 2.05101 12.4511 2.05101 13.0941 2.55401L22.2661 9.73901C22.5421 9.95501 22.7151 10.275 22.7451 10.623C22.7761 10.971 22.6601 11.317 22.4261 11.577L21.5731 12.524C21.1331 13.013 20.3921 13.082 19.8691 12.682L12.1661 6.79201C12.0681 6.71701 11.9321 6.71701 11.8341 6.79201L4.13106 12.682C3.60806 13.082 2.86706 13.013 2.42706 12.524Z" fill="#F5F5F5"/>
<path fill-rule="evenodd" clip-rule="evenodd" d="M15.8561 3.44699V3.16199C15.8561 2.74799 16.1921 2.41199 16.6061 2.41199H19.6761C20.0911 2.41199 20.4261 2.74799 20.4261 3.16199V7.02799L15.8561 3.44699Z" fill="#F5F5F5"/>
</svg>
