<svg width="24" height="24" viewBox="0 0 24 24" fill="none" xmlns="http://www.w3.org/2000/svg">
<path d="M1.91422 14.9212C2.02189 14.975 2.13615 15.0003 2.24894 15.0003C2.52433 15.0003 2.78874 14.8487 2.92057 14.5857L3.67057 13.0857C3.85587 12.7151 3.70573 12.2647 3.33512 12.0794C2.96452 11.8941 2.51408 12.0442 2.32877 12.4148L1.57877 13.9148C1.39347 14.2854 1.54362 14.7359 1.91422 14.9212Z" fill="#F5F5F5"/>
<path d="M7.16422 12.0794C6.79362 12.2647 6.64347 12.7151 6.82877 13.0857L7.57877 14.5857C7.71061 14.8487 7.97501 15.0003 8.2504 15.0003C8.3632 15.0003 8.47746 14.975 8.58512 14.9212C8.95573 14.7359 9.10587 14.2854 8.92057 13.9148L8.17057 12.4148C7.98454 12.0442 7.5341 11.8941 7.16422 12.0794Z" fill="#F5F5F5"/>
<path d="M15.8294 12.4148L15.0794 13.9148C14.8941 14.2854 15.0442 14.7359 15.4148 14.9212C15.5225 14.975 15.6368 15.0003 15.7496 15.0003C16.0249 15.0003 16.2893 14.8487 16.4212 14.5857L17.1712 13.0857C17.3565 12.7151 17.2063 12.2647 16.8357 12.0794C16.4644 11.8941 16.0154 12.0442 15.8294 12.4148Z" fill="#F5F5F5"/>
<path d="M20.6648 12.0794C20.2942 12.2647 20.1441 12.7151 20.3294 13.0857L21.0794 14.5857C21.2112 14.8487 21.4756 15.0003 21.751 15.0003C21.8638 15.0003 21.9781 14.975 22.0857 14.9212C22.4563 14.7359 22.6065 14.2854 22.4212 13.9148L21.6712 12.4148C21.4851 12.0442 21.0362 11.8941 20.6648 12.0794Z" fill="#F5F5F5"/>
<path d="M4.49963 13.5002V15.0002C4.49963 15.4144 4.83508 15.7502 5.24963 15.7502C5.66418 15.7502 5.99963 15.4144 5.99963 15.0002V13.5002C5.99963 13.0861 5.66418 12.7502 5.24963 12.7502C4.83508 12.7502 4.49963 13.0861 4.49963 13.5002Z" fill="#F5F5F5"/>
<path d="M18.0002 13.5002V15.0002C18.0002 15.4144 18.3357 15.7502 18.7502 15.7502C19.1648 15.7502 19.5002 15.4144 19.5002 15.0002V13.5002C19.5002 13.0861 19.1648 12.7502 18.7502 12.7502C18.3357 12.7502 18.0002 13.0861 18.0002 13.5002Z" fill="#F5F5F5"/>
<path d="M20.25 8.25H15C13.6699 8.25 13.0291 8.68909 12 9.49841C10.9709 8.68909 10.3301 8.25 9 8.25H3.75C3.33577 8.25 3 8.58577 3 9V9.75C3 10.5784 3.67159 11.25 4.5 11.25H6C6.8269 11.25 7.5 10.5773 7.5 9.75H9C9.01067 9.75 9.02129 9.75005 9.03181 9.75009C10.274 9.75916 11.25 10.8256 11.25 12.0678V19.1254L8.55029 21.1501C8.21851 21.3984 8.15112 21.8687 8.40015 22.2001C8.64771 22.5308 9.11865 22.5985 9.44971 22.3499L12 20.4375L14.5503 22.3499C14.6851 22.4513 14.8425 22.5 14.9993 22.5C15.2278 22.5 15.4526 22.3964 15.5999 22.2001C15.8489 21.8687 15.7815 21.3984 15.4497 21.1501L12.75 19.1254V12.0678C12.75 10.8256 13.726 9.75916 14.9682 9.75009C14.9787 9.75005 14.9893 9.75 15 9.75H16.5C16.5 10.5773 17.1731 11.25 18 11.25H19.5C20.3284 11.25 21 10.5784 21 9.75V9C21 8.58577 20.6642 8.25 20.25 8.25Z" fill="#F5F5F5"/>
<path d="M17.5103 3.75H15.2812L15.4688 5.25H17.7603L17.5103 3.75Z" fill="#F5F5F5"/>
<path d="M14.4375 3L14.25 1.5H12.375V3H14.4375Z" fill="#F5F5F5"/>
<path d="M14.5312 3.75H12.375V5.25H14.7188L14.5312 3.75Z" fill="#F5F5F5"/>
<path d="M6.23962 5.25H8.53119L8.71869 3.75H6.48961L6.23962 5.25Z" fill="#F5F5F5"/>
<path d="M17.3853 3L17.2397 2.12659C17.1797 1.76514 16.8669 1.5 16.5 1.5H15L15.1875 3H17.3853Z" fill="#F5F5F5"/>
<path d="M11.625 3.75H9.46875L9.28125 5.25H11.625V3.75Z" fill="#F5F5F5"/>
<path d="M11.625 3V1.5H9.75L9.5625 3H11.625Z" fill="#F5F5F5"/>
<path d="M12.375 6V7.5H15L14.8125 6H12.375Z" fill="#F5F5F5"/>
<path d="M15.5625 6L15.75 7.5H17.25C17.4705 7.5 17.6799 7.40295 17.822 7.23486C17.9648 7.06641 18.0264 6.84412 17.9897 6.62659L17.8853 6H15.5625Z" fill="#F5F5F5"/>
<path d="M9.1875 6L9 7.5H11.625V6H9.1875Z" fill="#F5F5F5"/>
<path d="M8.81244 3L8.99994 1.5H7.49994C7.133 1.5 6.82025 1.76514 6.76019 2.12659L6.61462 3H8.81244Z" fill="#F5F5F5"/>
<path d="M6.11465 6L6.01024 6.62659C5.97362 6.84412 6.03514 7.06641 6.17796 7.23486C6.32005 7.40295 6.52953 7.5 6.74998 7.5H8.24998L8.43748 6H6.11465Z" fill="#F5F5F5"/>
</svg>
