<svg width="20" height="20" viewBox="0 0 20 20" fill="none" xmlns="http://www.w3.org/2000/svg">
<path d="M10 0.25C8.07164 0.25 6.18657 0.821828 4.58319 1.89317C2.97982 2.96451 1.73013 4.48726 0.992179 6.26884C0.254225 8.05042 0.061142 10.0108 0.437348 11.9021C0.813554 13.7934 1.74215 15.5307 3.10571 16.8943C4.46928 18.2579 6.20656 19.1865 8.09787 19.5627C9.98919 19.9389 11.9496 19.7458 13.7312 19.0078C15.5127 18.2699 17.0355 17.0202 18.1068 15.4168C19.1782 13.8134 19.75 11.9284 19.75 10C19.7473 7.41498 18.7192 4.93661 16.8913 3.10872C15.0634 1.28084 12.585 0.25273 10 0.25ZM13.8016 10.6169L8.92657 13.9919C8.81402 14.0697 8.68233 14.1152 8.54576 14.1236C8.40918 14.1319 8.27293 14.1028 8.15174 14.0392C8.03056 13.9757 7.92907 13.8802 7.85825 13.7631C7.78744 13.6461 7.75001 13.5118 7.75 13.375V6.625C7.75001 6.48817 7.78744 6.35395 7.85825 6.23687C7.92907 6.11978 8.03056 6.02431 8.15174 5.96077C8.27293 5.89723 8.40918 5.86806 8.54576 5.8764C8.68233 5.88475 8.81402 5.9303 8.92657 6.00812L13.8016 9.38313C13.9013 9.45212 13.9829 9.5443 14.0392 9.65174C14.0956 9.75918 14.125 9.87869 14.125 10C14.125 10.1213 14.0956 10.2408 14.0392 10.3483C13.9829 10.4557 13.9013 10.5479 13.8016 10.6169Z" fill="#F5F5F5"/>
</svg>
